<?xml version="1.0" standalone="no"?>
<!DOCTYPE svg PUBLIC "-//W3C//DTD SVG 20010904//EN"
 "http://www.w3.org/TR/2001/REC-SVG-20010904/DTD/svg10.dtd">
<svg version="1.0" xmlns="http://www.w3.org/2000/svg"
 width="100pt" height="100pt" viewBox="0 0 840.000000 850.000000"
 preserveAspectRatio="xMidYMid meet">

<g transform="translate(0.000000,850.000000) scale(0.100000,-0.100000)"
fill="#000000" stroke="none">
<path d="M4020 8094 c-583 -39 -1051 -162 -1530 -400 -402 -201 -723 -435
-1040 -760 -164 -168 -281 -308 -404 -483 -552 -786 -790 -1777 -656 -2731
138 -987 643 -1865 1431 -2492 564 -449 1270 -733 2009 -810 158 -16 589 -16
740 0 1060 113 1985 617 2646 1443 452 565 737 1270 816 2019 16 155 16 584 0
740 -79 753 -362 1448 -823 2025 -655 818 -1597 1331 -2637 1435 -111 11 -464
20 -552 14z m1173 -896 c21 -258 -78 -576 -254 -810 -60 -80 -196 -212 -275
-266 -160 -108 -334 -171 -515 -187 l-76 -6 -6 38 c-11 65 -8 198 7 275 79
411 394 783 791 934 92 35 241 73 287 74 l36 0 5 -52z m-1731 -1257 c48 -11
188 -54 310 -95 264 -89 371 -111 513 -103 119 7 198 27 405 103 279 101 432
130 645 121 263 -12 491 -98 731 -278 83 -62 274 -250 274 -269 0 -4 -30 -27
-67 -50 -185 -116 -331 -277 -426 -472 -85 -173 -120 -326 -120 -523 0 -326
113 -610 335 -841 118 -122 242 -212 368 -264 30 -13 59 -27 64 -31 26 -23
-177 -413 -357 -687 -241 -366 -460 -598 -659 -698 -116 -58 -204 -77 -338
-72 -126 6 -158 15 -390 117 -196 86 -371 119 -560 106 -180 -11 -263 -33
-485 -127 -181 -77 -263 -98 -383 -98 -319 0 -587 196 -904 660 -330 484 -504
919 -593 1480 -24 149 -29 559 -9 700 49 351 184 652 388 870 255 272 534 426
861 474 70 10 313 -4 397 -23z"/>
</g>
</svg>
