<?xml version="1.0" standalone="no"?>
<!DOCTYPE svg PUBLIC "-//W3C//DTD SVG 20010904//EN"
 "http://www.w3.org/TR/2001/REC-SVG-20010904/DTD/svg10.dtd">
<svg version="1.0" xmlns="http://www.w3.org/2000/svg"
 width="100pt" height="100pt" viewBox="0 0 410.000000 410.000000"
 preserveAspectRatio="xMidYMid meet">

<g transform="translate(0.000000,410.000000) scale(0.100000,-0.100000)"
fill="#3D5B99" stroke="none">
<path d="M1905 3963 c-207 -24 -349 -56 -495 -110 -643 -238 -1090 -779 -1216
-1473 -27 -146 -25 -468 4 -620 53 -283 140 -499 298 -735 292 -439 753 -729
1299 -817 120 -19 427 -16 559 6 729 120 1317 638 1521 1341 54 186 69 303 69
525 0 222 -15 339 -69 525 -103 355 -320 688 -600 921 -296 247 -648 395
-1034 434 -97 9 -269 11 -336 3z m683 -950 c2 -151 0 -193 -10 -193 -7 0 -67
-2 -133 -3 -129 -2 -158 -11 -190 -61 -21 -32 -34 -249 -15 -271 10 -12 41
-15 176 -15 l164 0 0 -37 c0 -57 -29 -343 -36 -354 -3 -5 -72 -9 -155 -9
l-149 0 -2 -562 -3 -563 -235 0 -235 0 -3 563 c-2 439 -5 562 -15 563 -6 0
-57 1 -112 2 l-100 2 -3 198 -2 197 114 0 114 0 4 188 c4 154 9 199 26 252 40
124 132 224 245 266 57 21 206 31 427 30 l125 -1 3 -192z"/>
</g>
</svg>
