<?xml version="1.0" encoding="UTF-8"?>
<svg width="100pt" height="100pt" viewBox="0 0 24 24" version="1.1" xmlns="http://www.w3.org/2000/svg" xmlns:xlink="http://www.w3.org/1999/xlink">
    <!-- Generator: sketchtool 63.1 (101010) - https://sketch.com -->
    <title>DE4D7A4E-D0FC-4C78-9D73-EC445FD7CF3D@0.5x</title>
    <desc>Created with sketchtool.</desc>
    <g id="Fluxo-Login--2" stroke="none" stroke-width="1" fill="none" fill-rule="evenodd">
        <g id="Mobile---Login---Acesso" transform="translate(-121.000000, -277.000000)" fill-rule="nonzero">
            <g id="[M]-Menu-mobile---log-in" transform="translate(81.000000, 187.000000)">
                <g id="Botoes-redes" transform="translate(0.000000, 72.000000)">
                    <g id="cta-google">
                        <g id="label" transform="translate(40.000000, 18.000000)">
                            <g id="icon/Google">
                                <g id="Shape">
                                    <path d="M5.31890625,14.5035 L4.4835,17.6221875 L1.43010938,17.6867813 C0.51759375,15.9942656 0,14.0578125 0,12 C0,10.0101094 0.4839375,8.13360938 1.34175,6.4813125 L1.34240625,6.4813125 L4.06078125,6.9796875 L5.25159375,9.68175 C5.00235938,10.4083594 4.86651563,11.1883594 4.86651563,12 C4.86660938,12.880875 5.02617188,13.7248594 5.31890625,14.5035 Z" fill="#FBBB00"></path>
                                    <path d="M23.7903281,9.75825 C23.9281406,10.4841562 24,11.2338281 24,12 C24,12.859125 23.9096719,13.6971562 23.7375937,14.5055156 C23.1534375,17.2562812 21.6270469,19.65825 19.5125625,21.3580312 L19.5119062,21.357375 L16.0879687,21.1826719 L15.603375,18.1575937 C17.0064375,17.33475 18.1029375,16.0470469 18.6805312,14.5055156 L12.2638125,14.5055156 L12.2638125,9.75825 L18.7741406,9.75825 L23.7903281,9.75825 L23.7903281,9.75825 Z" fill="#518EF8"></path>
                                    <path d="M19.5118594,21.357375 L19.5125156,21.3580313 C17.4560625,23.0109844 14.8437188,24 12,24 C7.43010938,24 3.4569375,21.4457344 1.43010938,17.6868281 L5.31890625,14.5035469 C6.33229688,17.2081406 8.9413125,19.1334375 12,19.1334375 C13.3147031,19.1334375 14.5463906,18.7780313 15.6032813,18.1575938 L19.5118594,21.357375 Z" fill="#28B446"></path>
                                    <path d="M19.6595625,2.762625 L15.7720781,5.94525 C14.67825,5.26153125 13.38525,4.8665625 12,4.8665625 C8.87207813,4.8665625 6.21426563,6.88017188 5.25164063,9.68175 L1.34240625,6.4813125 L1.34175,6.4813125 C3.33890625,2.63076562 7.3621875,0 12,0 C14.9116406,0 17.5813125,1.03715625 19.6595625,2.762625 Z" fill="#F14336"></path>
                                </g>
                            </g>
                        </g>
                    </g>
                </g>
            </g>
        </g>
    </g>
</svg>